<mxfile host="app.diagrams.net" modified="2022-07-09T08:21:15.869Z" agent="5.0 (Windows NT 10.0; Win64; x64) AppleWebKit/537.36 (KHTML, like Gecko) Chrome/103.0.0.0 Safari/537.36" etag="cG0KwHshNc6-ditSlG_H" version="16.2.4" type="github">
  <diagram id="C5RBs43oDa-KdzZeNtuy" name="Page-1">
    <mxGraphModel dx="2249" dy="794" grid="1" gridSize="10" guides="1" tooltips="1" connect="1" arrows="1" fold="1" page="1" pageScale="1" pageWidth="827" pageHeight="1169" math="0" shadow="0">
      <root>
        <mxCell id="WIyWlLk6GJQsqaUBKTNV-0" />
        <mxCell id="WIyWlLk6GJQsqaUBKTNV-1" parent="WIyWlLk6GJQsqaUBKTNV-0" />
        <mxCell id="nbhJj6TmSMVfoY6dZ5SS-27" style="edgeStyle=orthogonalEdgeStyle;rounded=0;orthogonalLoop=1;jettySize=auto;html=1;dashed=1;" edge="1" parent="WIyWlLk6GJQsqaUBKTNV-1" source="WIyWlLk6GJQsqaUBKTNV-3" target="nbhJj6TmSMVfoY6dZ5SS-26">
          <mxGeometry relative="1" as="geometry" />
        </mxCell>
        <mxCell id="WIyWlLk6GJQsqaUBKTNV-3" value="start compiler engine/game" style="rounded=1;whiteSpace=wrap;html=1;fontSize=12;glass=0;strokeWidth=1;shadow=0;" parent="WIyWlLk6GJQsqaUBKTNV-1" vertex="1">
          <mxGeometry x="160" y="80" width="120" height="40" as="geometry" />
        </mxCell>
        <mxCell id="nbhJj6TmSMVfoY6dZ5SS-50" style="edgeStyle=orthogonalEdgeStyle;rounded=0;orthogonalLoop=1;jettySize=auto;html=1;entryX=1;entryY=0.75;entryDx=0;entryDy=0;dashed=1;exitX=0;exitY=0.87;exitDx=0;exitDy=0;exitPerimeter=0;" edge="1" parent="WIyWlLk6GJQsqaUBKTNV-1" source="nbhJj6TmSMVfoY6dZ5SS-1" target="nbhJj6TmSMVfoY6dZ5SS-42">
          <mxGeometry relative="1" as="geometry" />
        </mxCell>
        <mxCell id="nbhJj6TmSMVfoY6dZ5SS-1" value="server" style="shape=cylinder3;whiteSpace=wrap;html=1;boundedLbl=1;backgroundOutline=1;size=15;" vertex="1" parent="WIyWlLk6GJQsqaUBKTNV-1">
          <mxGeometry x="560" y="240" width="60" height="230" as="geometry" />
        </mxCell>
        <mxCell id="nbhJj6TmSMVfoY6dZ5SS-8" style="edgeStyle=orthogonalEdgeStyle;rounded=0;orthogonalLoop=1;jettySize=auto;html=1;dashed=1;" edge="1" parent="WIyWlLk6GJQsqaUBKTNV-1" source="nbhJj6TmSMVfoY6dZ5SS-6">
          <mxGeometry relative="1" as="geometry">
            <mxPoint x="560" y="310" as="targetPoint" />
          </mxGeometry>
        </mxCell>
        <mxCell id="nbhJj6TmSMVfoY6dZ5SS-10" value="" style="edgeStyle=orthogonalEdgeStyle;rounded=0;orthogonalLoop=1;jettySize=auto;html=1;dashed=1;" edge="1" parent="WIyWlLk6GJQsqaUBKTNV-1" source="nbhJj6TmSMVfoY6dZ5SS-6" target="nbhJj6TmSMVfoY6dZ5SS-9">
          <mxGeometry relative="1" as="geometry" />
        </mxCell>
        <mxCell id="nbhJj6TmSMVfoY6dZ5SS-6" value="request lib from server" style="rounded=1;whiteSpace=wrap;html=1;fontSize=12;glass=0;strokeWidth=1;shadow=0;" vertex="1" parent="WIyWlLk6GJQsqaUBKTNV-1">
          <mxGeometry x="160" y="290" width="120" height="40" as="geometry" />
        </mxCell>
        <mxCell id="nbhJj6TmSMVfoY6dZ5SS-39" style="edgeStyle=orthogonalEdgeStyle;rounded=0;orthogonalLoop=1;jettySize=auto;html=1;dashed=1;" edge="1" parent="WIyWlLk6GJQsqaUBKTNV-1" source="nbhJj6TmSMVfoY6dZ5SS-9" target="nbhJj6TmSMVfoY6dZ5SS-18">
          <mxGeometry relative="1" as="geometry" />
        </mxCell>
        <mxCell id="nbhJj6TmSMVfoY6dZ5SS-43" value="" style="edgeStyle=orthogonalEdgeStyle;rounded=0;orthogonalLoop=1;jettySize=auto;html=1;dashed=1;" edge="1" parent="WIyWlLk6GJQsqaUBKTNV-1" source="nbhJj6TmSMVfoY6dZ5SS-9" target="nbhJj6TmSMVfoY6dZ5SS-42">
          <mxGeometry relative="1" as="geometry" />
        </mxCell>
        <mxCell id="nbhJj6TmSMVfoY6dZ5SS-9" value="has&amp;nbsp;Suitable lib" style="rhombus;whiteSpace=wrap;html=1;rounded=1;glass=0;strokeWidth=1;shadow=0;" vertex="1" parent="WIyWlLk6GJQsqaUBKTNV-1">
          <mxGeometry x="180" y="390" width="80" height="80" as="geometry" />
        </mxCell>
        <mxCell id="nbhJj6TmSMVfoY6dZ5SS-40" style="edgeStyle=orthogonalEdgeStyle;rounded=0;orthogonalLoop=1;jettySize=auto;html=1;entryX=0.5;entryY=0;entryDx=0;entryDy=0;dashed=1;" edge="1" parent="WIyWlLk6GJQsqaUBKTNV-1" source="nbhJj6TmSMVfoY6dZ5SS-18" target="nbhJj6TmSMVfoY6dZ5SS-22">
          <mxGeometry relative="1" as="geometry" />
        </mxCell>
        <mxCell id="nbhJj6TmSMVfoY6dZ5SS-18" value="download lib+headers" style="whiteSpace=wrap;html=1;rounded=1;glass=0;strokeWidth=1;shadow=0;" vertex="1" parent="WIyWlLk6GJQsqaUBKTNV-1">
          <mxGeometry x="160" y="510" width="120" height="40" as="geometry" />
        </mxCell>
        <mxCell id="nbhJj6TmSMVfoY6dZ5SS-20" value="" style="endArrow=classic;html=1;rounded=0;dashed=1;entryX=1;entryY=0.75;entryDx=0;entryDy=0;exitX=0;exitY=0.348;exitDx=0;exitDy=0;exitPerimeter=0;" edge="1" parent="WIyWlLk6GJQsqaUBKTNV-1" source="nbhJj6TmSMVfoY6dZ5SS-1" target="nbhJj6TmSMVfoY6dZ5SS-6">
          <mxGeometry width="50" height="50" relative="1" as="geometry">
            <mxPoint x="390" y="320" as="sourcePoint" />
            <mxPoint x="440" y="270" as="targetPoint" />
          </mxGeometry>
        </mxCell>
        <mxCell id="nbhJj6TmSMVfoY6dZ5SS-24" value="" style="edgeStyle=orthogonalEdgeStyle;rounded=0;orthogonalLoop=1;jettySize=auto;html=1;dashed=1;" edge="1" parent="WIyWlLk6GJQsqaUBKTNV-1" source="nbhJj6TmSMVfoY6dZ5SS-22" target="nbhJj6TmSMVfoY6dZ5SS-23">
          <mxGeometry relative="1" as="geometry" />
        </mxCell>
        <mxCell id="nbhJj6TmSMVfoY6dZ5SS-51" style="edgeStyle=orthogonalEdgeStyle;rounded=0;orthogonalLoop=1;jettySize=auto;html=1;entryX=1.067;entryY=0.851;entryDx=0;entryDy=0;entryPerimeter=0;dashed=1;" edge="1" parent="WIyWlLk6GJQsqaUBKTNV-1" source="nbhJj6TmSMVfoY6dZ5SS-22" target="nbhJj6TmSMVfoY6dZ5SS-25">
          <mxGeometry relative="1" as="geometry" />
        </mxCell>
        <mxCell id="nbhJj6TmSMVfoY6dZ5SS-22" value="cached to local path" style="rounded=1;whiteSpace=wrap;html=1;fontSize=12;glass=0;strokeWidth=1;shadow=0;" vertex="1" parent="WIyWlLk6GJQsqaUBKTNV-1">
          <mxGeometry x="160" y="585" width="120" height="40" as="geometry" />
        </mxCell>
        <mxCell id="nbhJj6TmSMVfoY6dZ5SS-23" value="continue compiler" style="rounded=1;whiteSpace=wrap;html=1;fontSize=12;glass=0;strokeWidth=1;shadow=0;" vertex="1" parent="WIyWlLk6GJQsqaUBKTNV-1">
          <mxGeometry x="160" y="665" width="120" height="40" as="geometry" />
        </mxCell>
        <mxCell id="nbhJj6TmSMVfoY6dZ5SS-25" value="local cache" style="shape=cylinder3;whiteSpace=wrap;html=1;boundedLbl=1;backgroundOutline=1;size=15;" vertex="1" parent="WIyWlLk6GJQsqaUBKTNV-1">
          <mxGeometry x="-70" y="120" width="60" height="570" as="geometry" />
        </mxCell>
        <mxCell id="nbhJj6TmSMVfoY6dZ5SS-29" style="edgeStyle=orthogonalEdgeStyle;rounded=0;orthogonalLoop=1;jettySize=auto;html=1;entryX=1.017;entryY=0.088;entryDx=0;entryDy=0;entryPerimeter=0;dashed=1;" edge="1" parent="WIyWlLk6GJQsqaUBKTNV-1" source="nbhJj6TmSMVfoY6dZ5SS-26" target="nbhJj6TmSMVfoY6dZ5SS-25">
          <mxGeometry relative="1" as="geometry" />
        </mxCell>
        <mxCell id="nbhJj6TmSMVfoY6dZ5SS-45" style="edgeStyle=orthogonalEdgeStyle;rounded=0;orthogonalLoop=1;jettySize=auto;html=1;dashed=1;" edge="1" parent="WIyWlLk6GJQsqaUBKTNV-1" source="nbhJj6TmSMVfoY6dZ5SS-26" target="nbhJj6TmSMVfoY6dZ5SS-33">
          <mxGeometry relative="1" as="geometry" />
        </mxCell>
        <mxCell id="nbhJj6TmSMVfoY6dZ5SS-26" value="get third libs from local" style="rounded=1;whiteSpace=wrap;html=1;fontSize=12;glass=0;strokeWidth=1;shadow=0;" vertex="1" parent="WIyWlLk6GJQsqaUBKTNV-1">
          <mxGeometry x="160" y="150" width="120" height="40" as="geometry" />
        </mxCell>
        <mxCell id="nbhJj6TmSMVfoY6dZ5SS-31" style="edgeStyle=orthogonalEdgeStyle;rounded=0;orthogonalLoop=1;jettySize=auto;html=1;dashed=1;exitX=1.067;exitY=0.114;exitDx=0;exitDy=0;exitPerimeter=0;" edge="1" parent="WIyWlLk6GJQsqaUBKTNV-1" source="nbhJj6TmSMVfoY6dZ5SS-25">
          <mxGeometry relative="1" as="geometry">
            <mxPoint x="160" y="185" as="targetPoint" />
            <mxPoint x="290" y="320" as="sourcePoint" />
          </mxGeometry>
        </mxCell>
        <mxCell id="nbhJj6TmSMVfoY6dZ5SS-34" style="edgeStyle=orthogonalEdgeStyle;rounded=0;orthogonalLoop=1;jettySize=auto;html=1;dashed=1;entryX=0;entryY=0.5;entryDx=0;entryDy=0;" edge="1" parent="WIyWlLk6GJQsqaUBKTNV-1" source="nbhJj6TmSMVfoY6dZ5SS-33" target="nbhJj6TmSMVfoY6dZ5SS-23">
          <mxGeometry relative="1" as="geometry">
            <mxPoint x="70" y="690" as="targetPoint" />
            <Array as="points">
              <mxPoint x="60" y="245" />
              <mxPoint x="60" y="685" />
            </Array>
          </mxGeometry>
        </mxCell>
        <mxCell id="nbhJj6TmSMVfoY6dZ5SS-37" style="edgeStyle=orthogonalEdgeStyle;rounded=0;orthogonalLoop=1;jettySize=auto;html=1;entryX=0.5;entryY=0;entryDx=0;entryDy=0;dashed=1;" edge="1" parent="WIyWlLk6GJQsqaUBKTNV-1" source="nbhJj6TmSMVfoY6dZ5SS-33" target="nbhJj6TmSMVfoY6dZ5SS-6">
          <mxGeometry relative="1" as="geometry" />
        </mxCell>
        <mxCell id="nbhJj6TmSMVfoY6dZ5SS-33" value="local cached" style="rhombus;whiteSpace=wrap;html=1;" vertex="1" parent="WIyWlLk6GJQsqaUBKTNV-1">
          <mxGeometry x="180" y="220" width="80" height="50" as="geometry" />
        </mxCell>
        <mxCell id="nbhJj6TmSMVfoY6dZ5SS-35" value="yes" style="text;html=1;align=center;verticalAlign=middle;resizable=0;points=[];autosize=1;strokeColor=none;fillColor=none;" vertex="1" parent="WIyWlLk6GJQsqaUBKTNV-1">
          <mxGeometry x="110" y="230" width="30" height="20" as="geometry" />
        </mxCell>
        <mxCell id="nbhJj6TmSMVfoY6dZ5SS-38" value="no" style="text;html=1;align=center;verticalAlign=middle;resizable=0;points=[];autosize=1;strokeColor=none;fillColor=none;" vertex="1" parent="WIyWlLk6GJQsqaUBKTNV-1">
          <mxGeometry x="220" y="270" width="30" height="20" as="geometry" />
        </mxCell>
        <mxCell id="nbhJj6TmSMVfoY6dZ5SS-41" value="yes" style="text;html=1;align=center;verticalAlign=middle;resizable=0;points=[];autosize=1;strokeColor=none;fillColor=none;" vertex="1" parent="WIyWlLk6GJQsqaUBKTNV-1">
          <mxGeometry x="225" y="470" width="30" height="20" as="geometry" />
        </mxCell>
        <mxCell id="nbhJj6TmSMVfoY6dZ5SS-47" value="" style="edgeStyle=orthogonalEdgeStyle;rounded=0;orthogonalLoop=1;jettySize=auto;html=1;dashed=1;" edge="1" parent="WIyWlLk6GJQsqaUBKTNV-1" source="nbhJj6TmSMVfoY6dZ5SS-42" target="nbhJj6TmSMVfoY6dZ5SS-46">
          <mxGeometry relative="1" as="geometry" />
        </mxCell>
        <mxCell id="nbhJj6TmSMVfoY6dZ5SS-49" style="edgeStyle=orthogonalEdgeStyle;rounded=0;orthogonalLoop=1;jettySize=auto;html=1;entryX=-0.033;entryY=0.826;entryDx=0;entryDy=0;entryPerimeter=0;dashed=1;" edge="1" parent="WIyWlLk6GJQsqaUBKTNV-1" source="nbhJj6TmSMVfoY6dZ5SS-42" target="nbhJj6TmSMVfoY6dZ5SS-1">
          <mxGeometry relative="1" as="geometry" />
        </mxCell>
        <mxCell id="nbhJj6TmSMVfoY6dZ5SS-42" value="download source" style="whiteSpace=wrap;html=1;rounded=1;glass=0;strokeWidth=1;shadow=0;" vertex="1" parent="WIyWlLk6GJQsqaUBKTNV-1">
          <mxGeometry x="320" y="410" width="120" height="40" as="geometry" />
        </mxCell>
        <mxCell id="nbhJj6TmSMVfoY6dZ5SS-44" value="no" style="text;html=1;align=center;verticalAlign=middle;resizable=0;points=[];autosize=1;strokeColor=none;fillColor=none;" vertex="1" parent="WIyWlLk6GJQsqaUBKTNV-1">
          <mxGeometry x="265" y="410" width="30" height="20" as="geometry" />
        </mxCell>
        <mxCell id="nbhJj6TmSMVfoY6dZ5SS-48" style="edgeStyle=orthogonalEdgeStyle;rounded=0;orthogonalLoop=1;jettySize=auto;html=1;dashed=1;" edge="1" parent="WIyWlLk6GJQsqaUBKTNV-1" source="nbhJj6TmSMVfoY6dZ5SS-46" target="nbhJj6TmSMVfoY6dZ5SS-22">
          <mxGeometry relative="1" as="geometry" />
        </mxCell>
        <mxCell id="nbhJj6TmSMVfoY6dZ5SS-46" value="compile libs" style="whiteSpace=wrap;html=1;rounded=1;glass=0;strokeWidth=1;shadow=0;" vertex="1" parent="WIyWlLk6GJQsqaUBKTNV-1">
          <mxGeometry x="320" y="585" width="120" height="40" as="geometry" />
        </mxCell>
      </root>
    </mxGraphModel>
  </diagram>
</mxfile>
